HIERARCHY
ROOT Hips
{
  OFFSET 0 0 0
  CHANNELS 6 Xposition Yposition Zposition Zrotation Xrotation Yrotation
  JOINT Spine
  {
    OFFSET 0 10.1816 0.1315
    CHANNELS 3 Zrotation Xrotation Yrotation
    JOINT Spine1
    {
      OFFSET 0 10.0835 -1.0008
      CHANNELS 3 Zrotation Xrotation Yrotation
      JOINT Spine2
      {
        OFFSET 0 9.1 -1.3734
        CHANNELS 3 Zrotation Xrotation Yrotation
        JOINT Neck
        {
          OFFSET 0 16.6717 -2.5162
          CHANNELS 3 Zrotation Xrotation Yrotation
          JOINT Head
          {
            OFFSET 0 9.6179 1.685
            CHANNELS 3 Zrotation Xrotation Yrotation
            End Site
            {
              OFFSET 0 17.8152 2.585
            }
          }
        }
        JOINT LeftShoulder
        {
          OFFSET 4.5704 10.946 -2.628
          CHANNELS 3 Zrotation Xrotation Yrotation
          JOINT LeftArm
          {
            OFFSET 10.5924 -0.5246 -2.2321
            CHANNELS 3 Zrotation Xrotation Yrotation
            JOINT LeftForeArm
            {
              OFFSET 27.8415 -0.0001 0
              CHANNELS 3 Zrotation Xrotation Yrotation
              JOINT LeftHand
              {
                OFFSET 28.3288 0 0
                CHANNELS 3 Zrotation Xrotation Yrotation
                End Site
                {
                  OFFSET 0 0 0
                }
              }
            }
          }
        }
        JOINT RightShoulder
        {
          OFFSET -4.57 10.9462 -2.628
          CHANNELS 3 Zrotation Xrotation Yrotation
          JOINT RightArm
          {
            OFFSET -10.5928 -0.5248 -2.2321
            CHANNELS 3 Zrotation Xrotation Yrotation
            JOINT RightForeArm
            {
              OFFSET -27.8415 0 0
              CHANNELS 3 Zrotation Xrotation Yrotation
              JOINT RightHand
              {
                OFFSET -28.3288 0 0.0001
                CHANNELS 3 Zrotation Xrotation Yrotation
                End Site
                {
                  OFFSET 0 0 0
                }
              }
            }
          }
        }
      }
    }
  }
  JOINT LeftUpLeg
  {
    OFFSET 8.2078 -6.7517 -1.5996
    CHANNELS 3 Zrotation Xrotation Yrotation
    JOINT LeftLeg
    {
      OFFSET 0 -44.3705 0.2846
      CHANNELS 3 Zrotation Xrotation Yrotation
      JOINT LeftFoot
      {
        OFFSET 0 -44.4279 -2.9822
        CHANNELS 3 Zrotation Xrotation Yrotation
        JOINT LeftToeBase
        {
          OFFSET 0 -8.7287 10.7106
          CHANNELS 3 Zrotation Xrotation Yrotation
          End Site
          {
            OFFSET 0 -0.0007 9.2781
          }
        }
      }
    }
  }
  JOINT RightUpLeg
  {
    OFFSET -8.2078 -6.7517 -1.5996
    CHANNELS 3 Zrotation Xrotation Yrotation
    JOINT RightLeg
    {
      OFFSET 0 -44.3705 0.2862
      CHANNELS 3 Zrotation Xrotation Yrotation
      JOINT RightFoot
      {
        OFFSET 0 -44.4277 -2.9838
        CHANNELS 3 Zrotation Xrotation Yrotation
        JOINT RightToeBase
        {
          OFFSET 0 -8.7287 10.7106
          CHANNELS 3 Zrotation Xrotation Yrotation
          End Site
          {
            OFFSET 0 -0.0007 9.2781
          }
        }
      }
    }
  }
}
MOTION
Frames:	6
Frame Time:	0.0333333
-6.38336 89.4025 -14.3218 -1.96617 -1.03409 -23.5715 -0.881507 17.6437 5.18986 -0.448065 0.0883773 0.673412 -0.468248 0.09371 0.652515 -4.01534 5.65444 2.57976 -3.54786 7.69488 6.08381 -8.47947 0.47231 6.11272 -87.0274 1.88165 53.585 -4.48134 -12.7278 -109.625 10.1291 -4.87452 -33.2189 -3.87811 1.35006 12.9903 59.9965 15.0803 -22.7613 -4.2141 12.6098 108.674 -26.9783 -11.1636 -0.404462 26.9695 -44.4662 21.1261 13.7448 56.0207 -22.8841 -15.5906 12.2037 -9.65018 3.38048 -12.8947 0.494292 -17.9866 3.61675 -19.5383 -0.718109 41.0426 -1.36052 24.4712 -33.0623 5.05925 -0.00134447 -3.95954 0.0100068 
-6.30254 90.4732 -13.4045 -1.98355 -1.28089 -24.5751 -1.04693 17.1248 5.60267 -0.479017 0.20672 0.726216 -0.49923 0.211544 0.705154 -4.37801 6.41391 2.7725 -3.65509 8.40734 6.50752 -8.27113 0.336421 6.42189 -86.5578 1.08565 54.0168 -4.64156 -12.671 -110.354 9.75421 -4.65933 -33.0665 -3.88229 1.46007 13.4457 60.7101 14.7491 -23.341 -4.26764 12.5921 108.919 -27.191 -11.3968 -0.548144 28.5973 -44.2933 22.8311 12.6017 57.1026 -21.6942 -14.8399 16.1531 -11.2714 4.53969 -10.462 0.512939 -17.5451 5.62248 -19.215 -1.40611 36.6928 -2.08669 25.0483 -30.3734 5.28489 -0.000417165 -5.21007 0.01005 
-5.99185 91.9547 -12.1064 -1.52815 -1.20828 -25.6464 -1.50087 15.9518 5.93188 -0.385037 0.325667 0.758424 -0.403588 0.328588 0.741976 -4.82545 7.24693 2.98801 -3.77342 9.15759 6.8775 -8.08566 0.330193 6.36938 -85.8933 -0.0776737 53.2069 -4.8981 -12.5755 -111.528 10.0205 -4.51652 -32.5155 -3.88957 1.49286 13.9822 61.1428 13.8425 -23.073 -4.45423 12.5282 109.777 -28.1296 -12.4306 -0.801379 29.0382 -43.4616 23.8718 10.8121 56.688 -20.0283 -13.8337 18.2271 -13.0027 5.11098 -6.93415 0.394509 -17.7638 6.43317 -18.5848 -2.3314 33.1934 -2.15034 25.3679 -24.0947 4.2656 3.64304e-005 -7.39399 0.0116821 
-5.40137 93.4697 -10.5368 -0.696795 -0.82556 -26.6434 -2.04492 14.3844 6.08044 -0.215302 0.44411 0.764509 -0.230755 0.444606 0.755354 -5.22359 7.92308 3.16413 -3.96962 9.56948 7.17266 -7.95262 0.425812 6.0209 -85.3404 -1.46452 51.3892 -5.22144 -12.4464 -113.021 11.1008 -4.7234 -31.8743 -3.85366 1.49423 14.4835 61.0662 12.4383 -21.789 -4.71725 12.4329 110.994 -29.4922 -13.7606 -1.40324 28.0506 -42.4519 23.7566 9.33998 54.7586 -18.7927 -13.113 17.9905 -14.2189 1.8457 -4.43926 0.113264 -18.5334 6.38421 -17.9583 -3.15405 30.2944 -1.40908 25.72 -16.3074 2.27673 -0.00247048 -10.3056 -0.000871621 
-4.61716 94.6935 -8.82495 0.191247 -0.232194 -27.7213 -2.46576 12.7561 6.11334 -0.0310132 0.57046 0.761721 -0.0428279 0.568711 0.757962 -5.4997 8.3102 3.29391 -4.2324 9.48447 7.50792 -7.83112 0.561067 5.52372 -84.9094 -2.79862 48.8802 -5.53961 -12.3099 -114.505 12.7596 -5.34879 -31.3476 -3.73481 1.55259 14.9896 60.4985 10.6443 -19.5243 -4.98302 12.3301 112.234 -30.8873 -14.9522 -2.47919 26.3314 -41.2644 22.9239 8.51656 51.5077 -18.2256 -12.6291 16.0435 -14.3871 -2.34737e-006 -3.13197 -0.000560174 -19.4117 5.41387 -17.6219 -3.88508 29.19 -1.01181 23.4164 -11.7324 0.469427 3.09476 -9.8016 0.345883 
-3.75349 95.3912 -7.08388 0.829572 0.404769 -29.0714 -2.61983 11.3918 6.15011 0.116462 0.68554 0.763966 0.106882 0.682171 0.770784 -5.6209 8.35439 3.39672 -4.54282 9.03622 8.03768 -7.66949 0.664569 5.06379 -84.4126 -3.74611 46.1563 -5.75582 -12.2115 -115.523 14.479 -6.28021 -31.0549 -3.53474 1.74076 15.5336 59.6281 8.75409 -16.5701 -5.16729 12.255 113.099 -31.8941 -15.7556 -3.87636 24.71 -39.6754 22.0629 8.24783 47.3123 -18.1082 -12.1766 13.5001 -13.4473 -0.000261332 -2.81722 -0.00151194 -20.4123 3.76218 -17.4823 -4.58948 29.8512 -0.0966097 21.0171 -9.74749 -0.786439 4.47333 -7.41247 0.405863 
